<svg width="131" height="131" viewBox="0 0 131 131" fill="none" xmlns="http://www.w3.org/2000/svg">
<path d="M60.0417 81.875H70.9584V92.7916H60.0417V81.875ZM60.0417 38.2083H70.9584V70.9583H60.0417V38.2083ZM65.5 10.9166C35.3154 10.9166 10.9167 35.4791 10.9167 65.5C10.9167 79.9764 16.6674 93.8598 26.9038 104.096C31.9723 109.165 37.9895 113.185 44.6119 115.928C51.2342 118.671 58.332 120.083 65.5 120.083C79.9764 120.083 93.8599 114.333 104.096 104.096C114.333 93.8598 120.083 79.9764 120.083 65.5C120.083 58.332 118.672 51.2342 115.928 44.6118C113.185 37.9895 109.165 31.9722 104.096 26.9037C99.0277 21.8352 93.0105 17.8146 86.3882 15.0715C79.7658 12.3285 72.668 10.9166 65.5 10.9166ZM65.5 109.167C53.9189 109.167 42.8121 104.566 34.623 96.377C26.4339 88.1879 21.8334 77.0811 21.8334 65.5C21.8334 53.9188 26.4339 42.8121 34.623 34.623C42.8121 26.4339 53.9189 21.8333 65.5 21.8333C77.0811 21.8333 88.1879 26.4339 96.377 34.623C104.566 42.8121 109.167 53.9188 109.167 65.5C109.167 77.0811 104.566 88.1879 96.377 96.377C88.1879 104.566 77.0811 109.167 65.5 109.167Z" fill="#B31C14"/>
</svg>
