<svg width="123" height="123" viewBox="0 0 123 123" fill="none" xmlns="http://www.w3.org/2000/svg">
<path d="M56.375 35.875H66.625V46.125H56.375V35.875ZM56.375 56.375H66.625V87.125H56.375V56.375ZM61.5 10.25C33.21 10.25 10.25 33.21 10.25 61.5C10.25 89.79 33.21 112.75 61.5 112.75C89.79 112.75 112.75 89.79 112.75 61.5C112.75 33.21 89.79 10.25 61.5 10.25ZM61.5 102.5C38.8988 102.5 20.5 84.1012 20.5 61.5C20.5 38.8988 38.8988 20.5 61.5 20.5C84.1012 20.5 102.5 38.8988 102.5 61.5C102.5 84.1012 84.1012 102.5 61.5 102.5Z" fill="#1A55CA"/>
</svg>
