<svg width="113" height="113" viewBox="0 0 113 113" fill="none" xmlns="http://www.w3.org/2000/svg">
<path d="M33.933 11.9733C34.8156 12.8562 35.3115 14.0536 35.3115 15.3021C35.3115 16.5505 34.8156 17.7479 33.933 18.6308L25.4909 27.0729H62.3854C69.8352 27.0729 77.1176 29.282 83.3119 33.4209C89.5061 37.5597 94.334 43.4425 97.1849 50.3251C100.036 57.2078 100.782 64.7813 99.3283 72.088C97.875 79.3946 94.2876 86.1061 89.0198 91.3739C83.752 96.6417 77.0404 100.229 69.7338 101.682C62.4272 103.136 54.8537 102.39 47.971 99.539C41.0883 96.6881 35.2056 91.8603 31.0667 85.666C26.9279 79.4718 24.7187 72.1893 24.7187 64.7396C24.7187 63.4908 25.2148 62.2932 26.0978 61.4103C26.9808 60.5273 28.1784 60.0312 29.4271 60.0312C30.6758 60.0312 31.8734 60.5273 32.7564 61.4103C33.6394 62.2932 34.1354 63.4908 34.1354 64.7396C34.1354 70.3269 35.7923 75.7887 38.8964 80.4344C42.0006 85.0801 46.4126 88.701 51.5746 90.8392C56.7366 92.9773 62.4168 93.5368 67.8967 92.4467C73.3767 91.3567 78.4104 88.6662 82.3612 84.7153C86.312 80.7645 89.0026 75.7308 90.0926 70.2509C91.1826 64.7709 90.6232 59.0908 88.485 53.9287C86.3468 48.7667 82.726 44.3547 78.0803 41.2505C73.4346 38.1464 67.9727 36.4896 62.3854 36.4896H25.4909L33.933 44.9316C34.7906 45.8196 35.2652 47.0089 35.2545 48.2434C35.2437 49.478 34.7486 50.6589 33.8756 51.5318C33.0026 52.4048 31.8217 52.9 30.5872 52.9107C29.3527 52.9214 28.1634 52.4468 27.2754 51.5892L10.7962 35.11C9.91353 34.2271 9.41767 33.0297 9.41767 31.7812C9.41767 30.5327 9.91353 29.3354 10.7962 28.4524L27.2754 11.9733C28.1583 11.0906 29.3557 10.5947 30.6042 10.5947C31.8526 10.5947 33.05 11.0906 33.933 11.9733Z" fill="#E7E7E7"/>
</svg>
