<svg width="38" height="38" viewBox="0 0 38 38" fill="none" xmlns="http://www.w3.org/2000/svg">
<path d="M18.9841 3.16666C10.2441 3.16666 3.16663 10.26 3.16663 19C3.16663 27.74 10.2441 34.8333 18.9841 34.8333C27.74 34.8333 34.8333 27.74 34.8333 19C34.8333 10.26 27.74 3.16666 18.9841 3.16666ZM19 31.6667C12.0016 31.6667 6.33329 25.9983 6.33329 19C6.33329 12.0017 12.0016 6.33332 19 6.33332C25.9983 6.33332 31.6666 12.0017 31.6666 19C31.6666 25.9983 25.9983 31.6667 19 31.6667ZM19.7916 11.0833H17.4166V20.5833L25.7291 25.5708L26.9166 23.6233L19.7916 19.3958V11.0833Z" fill="#E7E7E7"/>
</svg>
