<svg width="121" height="121" viewBox="0 0 121 121" fill="none" xmlns="http://www.w3.org/2000/svg">
<path d="M60.5 10.0834C32.7708 10.0834 10.0833 32.7709 10.0833 60.5C10.0833 88.2292 32.7708 110.917 60.5 110.917C88.2292 110.917 110.917 88.2292 110.917 60.5C110.917 32.7709 88.2292 10.0834 60.5 10.0834ZM60.5 100.833C38.2662 100.833 20.1666 82.7338 20.1666 60.5C20.1666 38.2663 38.2662 20.1667 60.5 20.1667C82.7337 20.1667 100.833 38.2663 100.833 60.5C100.833 82.7338 82.7337 100.833 60.5 100.833ZM83.6412 38.2159L50.4166 71.4405L37.3587 58.433L30.25 65.5417L50.4166 85.7084L90.75 45.375L83.6412 38.2159Z" fill="#1C9D6F"/>
</svg>
