<svg width="123" height="123" viewBox="0 0 123 123" fill="none" xmlns="http://www.w3.org/2000/svg">
<path d="M51.25 15.375C49.7979 15.375 48.5816 14.883 47.601 13.899C46.617 12.9184 46.125 11.7021 46.125 10.25C46.125 8.79792 46.617 7.57987 47.601 6.59587C48.5816 5.61529 49.7979 5.125 51.25 5.125H71.75C73.2021 5.125 74.4201 5.61529 75.4041 6.59587C76.3847 7.57987 76.875 8.79792 76.875 10.25C76.875 11.7021 76.3847 12.9184 75.4041 13.899C74.4201 14.883 73.2021 15.375 71.75 15.375H51.25ZM61.5 71.75C62.9521 71.75 64.1701 71.258 65.1541 70.274C66.1347 69.2934 66.625 68.0771 66.625 66.625V46.125C66.625 44.6729 66.1347 43.4549 65.1541 42.4709C64.1701 41.4903 62.9521 41 61.5 41C60.0479 41 58.8316 41.4903 57.851 42.4709C56.867 43.4549 56.375 44.6729 56.375 46.125V66.625C56.375 68.0771 56.867 69.2934 57.851 70.274C58.8316 71.258 60.0479 71.75 61.5 71.75ZM61.5 112.75C55.1792 112.75 49.2205 111.534 43.624 109.101C38.0309 106.665 33.1417 103.354 28.9563 99.1688C24.7708 94.9833 21.4601 90.0941 19.024 84.501C16.5913 78.9045 15.375 72.9458 15.375 66.625C15.375 60.3042 16.5913 54.3455 19.024 48.749C21.4601 43.1559 24.7708 38.2667 28.9563 34.0813C33.1417 29.8958 38.0309 26.5868 43.624 24.1541C49.2205 21.718 55.1792 20.5 61.5 20.5C66.7958 20.5 71.8781 21.3542 76.7469 23.0625C81.6156 24.7708 86.1854 27.2479 90.4562 30.4937L94.1719 26.7781C95.1115 25.8385 96.2646 25.3687 97.6312 25.3687C98.9979 25.3687 100.194 25.8812 101.219 26.9062C102.158 27.8458 102.628 29.0417 102.628 30.4937C102.628 31.9458 102.158 33.1417 101.219 34.0813L97.6312 37.6687C100.877 41.9396 103.354 46.5094 105.062 51.3781C106.771 56.2469 107.625 61.3292 107.625 66.625C107.625 72.9458 106.409 78.9045 103.976 84.501C101.54 90.0941 98.2292 94.9833 94.0438 99.1688C89.8583 103.354 84.9691 106.665 79.376 109.101C73.7795 111.534 67.8208 112.75 61.5 112.75ZM61.5 102.5C71.4083 102.5 79.8646 98.9979 86.8688 91.9938C93.8729 84.9896 97.375 76.5333 97.375 66.625C97.375 56.7167 93.8729 48.2604 86.8688 41.2563C79.8646 34.2521 71.4083 30.75 61.5 30.75C51.5917 30.75 43.1354 34.2521 36.1313 41.2563C29.1271 48.2604 25.625 56.7167 25.625 66.625C25.625 76.5333 29.1271 84.9896 36.1313 91.9938C43.1354 98.9979 51.5917 102.5 61.5 102.5Z" fill="#E7E7E7"/>
</svg>
